Coordinates
version=1
nRows=54
nColumns=12
inDegrees=yes

Units are S.I. units (second, meters, Newtons, ...)
Angles are in degrees

endheader
time	SC_y	SC_z	SC_x	AC_y	AC_z	AC_x	GH_y	GH_z	GH_yy	EL_x	PS_y
       0.0              -33.58          7.953          83.74          45.32         -1.571         -18.76          -39.6          31.87         -78.43          112.1          16.37
   0.04336              -33.58          7.953          83.74          45.32         -1.573         -18.75         -39.62          31.88         -78.42          112.1          16.39
   0.08671              -33.58          7.953          83.74          45.33         -1.575         -18.75         -39.63          31.88         -78.41          112.2           16.4
    0.1301              -33.57          7.953          83.73          45.33         -1.577         -18.74         -39.65          31.89          -78.4          112.2          16.42
    0.1734              -33.57          7.954          83.73          45.33         -1.579         -18.74         -39.67           31.9         -78.39          112.2          16.44
    0.2168              -33.57          7.954          83.73          45.33         -1.581         -18.73         -39.69          31.91         -78.38          112.2          16.46
    0.2601              -33.56          7.954          83.72          45.33         -1.583         -18.72          -39.7          31.92         -78.36          112.2          16.48
    0.3035              -33.56          7.954          83.72          45.34         -1.586         -18.72         -39.73          31.93         -78.35          112.2           16.5
    0.3468              -33.56          7.954          83.71          45.34         -1.588         -18.71         -39.75          31.94         -78.34          112.2          16.52
    0.3902              -33.55          7.954          83.71          45.34         -1.591          -18.7         -39.77          31.95         -78.32          112.2          16.55
    0.4336              -33.55          7.955           83.7          45.35         -1.594         -18.69          -39.8          31.96          -78.3          112.2          16.57
    0.4769              -33.54          7.955           83.7          45.35         -1.598         -18.68         -39.83          31.98         -78.29          112.2           16.6
    0.5203              -33.54          7.955          83.69          45.35         -1.601         -18.67         -39.86          31.99         -78.27          112.2          16.63
    0.5636              -33.53          7.955          83.69          45.36         -1.605         -18.66         -39.89          32.01         -78.25          112.2          16.67
     0.607              -33.52          7.956          83.68          45.36         -1.609         -18.65         -39.93          32.02         -78.22          112.2          16.71
    0.6503              -33.52          7.956          83.67          45.37         -1.614         -18.64         -39.96          32.04          -78.2          112.2          16.75
    0.6937              -33.51          7.956          83.66          45.37         -1.618         -18.63         -40.01          32.06         -78.17          112.2          16.79
     0.737               -33.5          7.957          83.65          45.38         -1.624         -18.61         -40.05          32.08         -78.14          112.2          16.84
    0.7804              -33.49          7.957          83.64          45.38          -1.63          -18.6          -40.1          32.11         -78.11          112.2          16.89
    0.8237              -33.48          7.957          83.63          45.39         -1.636         -18.58         -40.15          32.13         -78.08          112.3          16.94
    0.8671              -33.47          7.958          83.62           45.4         -1.643         -18.56         -40.21          32.16         -78.04          112.3           17.0
    0.9105              -33.46          7.958          83.61          45.41         -1.651         -18.54         -40.28          32.19         -77.99          112.3          17.07
    0.9538              -33.44          7.959           83.6          45.42         -1.659         -18.51         -40.35          32.23         -77.95          112.3          17.15
    0.9972              -33.43           7.96          83.58          45.43         -1.669         -18.49         -40.43          32.26          -77.9          112.3          17.23
     1.041              -33.41           7.96          83.56          45.44         -1.679         -18.46         -40.52          32.31         -77.84          112.3          17.32
     1.084               -33.4          7.961          83.54          45.45         -1.691         -18.43         -40.62          32.35         -77.78          112.4          17.43
     1.127              -33.37          7.962          83.52          45.46         -1.704         -18.39         -40.73          32.41          -77.7          112.4          17.54
     1.171              -33.35          7.963           83.5          45.48         -1.719         -18.35         -40.86          32.47         -77.62          112.4          17.67
     1.214              -33.33          7.964          83.47           45.5         -1.735         -18.31          -41.0          32.53         -77.53          112.4          17.82
     1.257               -33.3          7.965          83.44          45.52         -1.754         -18.25         -41.16          32.61         -77.43          112.5          17.99
     1.301              -33.26          7.967           83.4          45.54         -1.776         -18.19         -41.34           32.7         -77.31          112.5          18.18
     1.344              -33.22          7.969          83.36          45.57           -1.8         -18.13         -41.56           32.8         -77.17          112.5          18.39
     1.387              -33.18          7.971          83.31           45.6         -1.829         -18.05          -41.8          32.91         -77.02          112.6          18.65
     1.431              -33.13          7.973          83.26          45.63         -1.862         -17.96         -42.08          33.05         -76.84          112.6          18.94
     1.474              -33.07          7.975           83.2          45.67         -1.901         -17.85         -42.41           33.2         -76.62          112.7          19.28
     1.517              -32.99          7.978          83.12          45.72         -1.947         -17.72          -42.8          33.39         -76.37          112.8          19.69
     1.561              -32.91          7.982          83.03          45.78         -2.001         -17.57         -43.27          33.61         -76.08          112.9          20.17
     1.604              -32.81          7.987          82.92          45.85         -2.066         -17.39         -43.82          33.87         -75.72          113.0          20.74
     1.647              -32.68          7.992          82.79          45.93         -2.145         -17.18         -44.49          34.19         -75.29          113.1          21.44
     1.691              -32.53          7.998          82.63          46.04         -2.242         -16.91         -45.32          34.58         -74.76          113.3          22.29
     1.734              -32.35          8.007          82.43          46.16         -2.361         -16.59         -46.33          35.07         -74.11          113.5          23.34
     1.778              -32.11          8.017          82.19          46.32         -2.509         -16.18         -47.59          35.67         -73.29          113.7          24.65
     1.821              -31.82          8.029          81.88          46.52         -2.696         -15.66         -49.19          36.42         -72.27          114.1           26.3
     1.864              -31.45          8.045          81.49          46.77         -2.933         -15.01         -51.21          37.38         -70.97          114.5          28.39
     1.908              -30.97          8.066          80.98          47.09         -3.237         -14.18          -53.8          38.62          -69.3          115.0          31.08
     1.951              -30.36          8.092          80.34          47.51         -3.627          -13.1         -57.13           40.2         -67.17          115.7          34.52
     1.994              -29.58          8.126          79.51          48.04         -4.126         -11.73         -61.37          42.21         -64.44          116.5          38.92
     2.038               -28.6          8.169          78.47          48.71         -4.753         -10.01         -66.71          44.75         -61.01          117.6          44.45
     2.081               -27.4           8.22          77.21          49.52         -5.516         -7.912         -73.22          47.84         -56.82          118.9          51.19
     2.124              -26.01           8.28          75.74          50.46         -6.401         -5.479         -80.76          51.43         -51.97          120.4           59.0
     2.168              -24.51          8.345          74.16          51.48          -7.36         -2.845         -88.93          55.31         -46.73          122.0          67.46
     2.211              -23.01           8.41          72.57           52.5         -8.318        -0.2104          -97.1          59.19         -41.48          123.7          75.92
     2.254              -21.62           8.47          71.11          53.44         -9.203          2.223         -104.6          62.77         -36.63          125.2          83.73
     2.298              -20.42          8.522          69.84          54.25         -9.967          4.322         -111.2          65.87         -32.45          126.5          90.47
